<svg id="圖層_6" data-name="圖層 6" xmlns="http://www.w3.org/2000/svg" viewBox="0 0 992.23 1403.32"><defs><style>.cls-1{fill:#fff;}</style></defs><title>logo_左</title><path class="cls-1" d="M748,239.91V77.73H625.09c-48.9,0-97.79.14-146.69-.06-26.43-.11-42.76-14.07-42.1-35.26C436.93,22.1,452.63,9.18,478,9.13q145.49-.24,291,0c33,.07,45.77,13.54,46.56,46.9,1.51,63.29,3.7,126.57,4.42,189.87.17,15.36,5.24,22.35,19.75,27.53q193.39,69,386.25,139.53c41.8,15.2,50.49,36.29,30.24,75.64q-146.19,284.06-293,567.79Q880,1217.51,796.65,1378.54c-17.91,34.44-34.66,40.54-70.39,27.31Q519.1,1329.13,312,1252.14c-34.43-12.81-43.86-29.82-33.9-65,54.24-191.56,109.16-382.93,163.45-574.47,23.56-83.12,46-166.56,69.26-249.75q19.09-68.14,39.53-135.9c11.1-36.58,31.63-46.34,68-33.44C662,209,705.46,224.68,748,239.91ZM625.59,288.25c-2.75,5.76-5.4,9.79-6.68,14.22-19.69,68.4-38.43,137.08-59.2,205.14-6.5,21.29-.85,32.1,18.34,41.17,57.49,27.2,114.29,13.66,171-1.56,3.91-1,8.36-9.5,8.29-14.46-.82-61.62-2.09-123.24-4.35-184.81-.23-6.17-6.42-15.37-12-17.57C703.14,315.59,664.69,302.31,625.59,288.25ZM827.52,523.83c160.69-36.24,160.69-36.24,317.11-8.7l17.67-33.49L827.52,361.07Zm-329,644.72c-.11-28.17-16.15-45.82-41.29-45.45-27.24.41-46.05,19-45.45,45,.62,27,15.42,42.19,41.37,42.57C479.38,1211.09,498.62,1193.21,498.53,1168.55Zm291.3-154.26c-.28-22.12-16.21-38-37.76-37.67-23.11.36-35,12.89-34.45,36.41.47,21.6,15.05,35.46,36.87,35.05C775.79,1047.68,790.08,1034,789.83,1014.3Zm37.63,104.12c-3.91,4.68-14.14,11.73-16.3,20.72-3.57,14.87,4.61,28.72,21.09,27.24,9-.81,21.87-10.81,24.36-19.22C860.9,1132.66,852,1121.35,827.46,1118.42ZM589,1077.16l11,.32c6.4-9,17.71-18,17.73-27.09,0-7.92-11.58-21-19.92-22.69-14.83-3.07-27.22,7.34-25.17,23.51C573.77,1060.4,583.25,1068.54,589,1077.16Zm288.78-62.6-.32,11.08c8.45,5.94,16.26,15.22,25.52,17,13.29,2.6,25.07-6.51,21.82-20.51-2.08-8.95-12.69-20.32-21.2-22C896.25,998.64,886.47,1009.28,877.77,1014.56ZM516.08,997.31c-13.47-7.77-21.3-16-27.22-14.76-7,1.42-12.47,10.91-18.59,16.9,6.76,6.22,12.83,15.9,20.53,17.45C496,1018,503.5,1007.56,516.08,997.31Z" transform="translate(-274.4 -9)"/></svg>