<svg id="下" xmlns="http://www.w3.org/2000/svg" viewBox="0 0 1028.06 759.76"><defs><style>.cls-1{fill:#fff;}</style></defs><title>logo_下</title><path class="cls-1" d="M806.28,935.31c1.8,20.42,10.82,43.89,3.77,60.57-11.75,27.79-33.8,51.23-51.51,76.5-23-20-61.16-36.73-66.24-60.54C677.7,943.31,675.94,872,670,801.68c-9-106.66-17.17-213.39-25.64-320.1-3.38-42.51,5.39-82.16,53.66-88.46,48.88-6.38,66.78,27.79,70.44,72.31C781.34,622,794.93,778.58,808.23,935.15Z" transform="translate(-207.94 -312.62)"/><path class="cls-1" d="M207.94,910.88c13-36,21.85-59.26,29.93-82.78,47.89-139.52,95.38-279.17,143.52-418.61,14.05-40.7,33.65-80.85,86.41-64.31,57.81,18.13,46.93,63,31.78,106.66C446,606.17,394.85,761.43,336.83,914.07,328,937.43,288.72,959.29,261.57,962,244.81,963.6,224.36,927.58,207.94,910.88Z" transform="translate(-207.94 -312.62)"/><path class="cls-1" d="M1236,865.95c-14,14.93-29.38,45.44-48.6,48.11-23,3.18-60.93-10.57-71.86-29.11-29.78-50.47-48.9-107.25-72-161.65-42.57-100.47-84.7-201.13-127.5-301.5-17.78-41.7-24.37-82,26.51-103.07,47.05-19.51,71,10.58,87.54,50.2q94.55,226.61,189.59,453C1224.06,832.32,1227.57,843.05,1236,865.95Z" transform="translate(-207.94 -312.62)"/></svg>