<svg id="上" xmlns="http://www.w3.org/2000/svg" viewBox="0 0 1192.31 524.02"><defs><style>.cls-1{fill:#fff;}</style></defs><title>logo_上</title><path class="cls-1" d="M443.33,840.36c-15.34,6.51-30.47,17.57-46.07,18.26s-36.61-4.35-46.44-15c-28.41-30.82-52.41-65.71-78.11-99C225,682.69,177.46,620.66,129.52,558.94c-17.5-22.52-26.93-46.4-1-67.06s47.6-6.49,65,16.09q108.81,141,217.33,282.19C418,799.42,422,811,427.45,821.55Z" transform="translate(-112.51 -368.91)"/><path class="cls-1" d="M823.43,738.47c22.67-121.08,42.15-231.89,65.72-341.81,2.67-12.47,32-30.86,42.37-27.3,15.1,5.19,36,29.68,34,42.72-17.43,111.07-38.31,221.66-61.85,331.61-2.69,12.57-29.78,29.93-42.59,27.74C845.53,768.76,833.12,747.69,823.43,738.47Z" transform="translate(-112.51 -368.91)"/><path class="cls-1" d="M1304.81,625.44c-9.4,15.95-15.19,29.87-24.47,40.86-57,67.54-114.82,134.35-172.23,201.53-18.27,21.38-39.3,36.34-65,14.09-24.72-21.43-16.16-44.71,2.66-66.65,59.5-69.34,117.63-139.9,178.92-207.61,10.23-11.3,34.11-15.49,50.75-13.81C1285.73,594.88,1294.21,613.3,1304.81,625.44Z" transform="translate(-112.51 -368.91)"/><path class="cls-1" d="M685.2,764.83c-12.59,10.8-25.8,31.11-39.52,31.45-14.78.38-37.71-14.72-43.59-28.73-15-35.68-22.46-74.51-32.87-112.09-13.22-47.73-29.3-95-37.87-143.53-2.72-15.42,10.58-40.76,24.25-49.43,8.84-5.61,42.95,7.17,46.43,17.94C631.48,571.68,656.5,664.35,685.2,764.83Z" transform="translate(-112.51 -368.91)"/></svg>