<svg id="右" xmlns="http://www.w3.org/2000/svg" viewBox="0 0 910.55 1399.32"><defs><style>.cls-1{fill:#fff;}</style></defs><title>logo_右</title><path class="cls-1" d="M741.07,106.45l11.47,189.32c32-9.91,62.09-19.26,92.21-28.53,10.91-3.36,21.89-6.51,32.83-9.8,39.4-11.87,56.21-2.09,65.78,38.37q73.45,310.53,146.92,621c23.34,98.38,47.37,196.6,70.56,295,8.7,36.92-.14,51.53-36.56,63.3q-198.77,64.24-397.65,128.17c-34.57,11.11-50.23,4.57-65.71-28.88q-140.44-303.57-280.4-607.36c-39.86-86.38-79.87-172.68-119.38-259.22-16.3-35.71-7.33-55.4,30.66-67.4Q479,381.3,666.56,323.15c15.91-4.9,22-11.78,20.64-28.66C682.46,235.31,678.9,176,675,116.77c-.65-9.87-1.57-19.8-1.25-29.66.91-28.53,10.5-39.69,39-43.07Q863.38,26.19,1014.13,9.3c20.1-2.28,36.24,8.83,39.59,26.37,3.64,19.1-7.27,35.64-29.34,38.49C961.79,82.25,899,88.78,836.27,95.87,806.06,99.29,775.84,102.59,741.07,106.45ZM758,380.62c4.29,70.24,8.23,137.71,12.91,205.13.31,4.49,5.47,11.29,9.65,12.46,43.48,12.14,86.71,15,129.06-5.48,14.13-6.83,17.59-16.17,13.7-31.19-10.28-39.73-19.37-79.77-29-119.68-7.57-31.49-15.18-63-23.22-96.32ZM368.38,542.55c116.6-42.66,225.15-5.78,335.5,32.19L692.9,401,350.63,507.61Zm705.87,617.14c.56-21.86-19-44-39.74-45-24-1.18-45.63,16.3-46.05,37.27-.46,23,18,44.49,38.95,45.5C1049.69,1198.48,1073.74,1179.11,1074.24,1159.69Zm-290.71-71.3c.4-22.07-11-33.75-33.31-34.11-20.25-.33-35.24,15.34-35,36.59.19,19.23,13.14,31.22,34.1,31.57C769.66,1122.79,783.15,1109.37,783.53,1088.39ZM701.14,1208c-15-10.24-22.68-19-31.67-20.76-15.65-3-24.3,8.23-24.77,22.81s9.78,24.15,23.3,21.43C677.64,1229.5,685.65,1219.41,701.14,1208ZM884,1146.53l.48-9.41c-8.9-6-17.8-16.6-26.69-16.58-7.59,0-15.15,12.23-22.72,19.05,7.75,7.9,14.5,20.15,23.59,22.27C865.55,1163.46,875.44,1152.11,884,1146.53ZM630.88,1097.1l.82-10.83c-7.81-5.6-16.16-16.24-23.28-15.47-8.3.9-19.63,10.45-22.26,18.63-4.08,12.68,5.82,22.67,19,21.17C614.12,1109.58,622.33,1101.84,630.88,1097.1ZM939.39,1045c-12-9-18.69-18-24.8-17.6-6.66.41-12.78,9.48-19.14,14.77,5.67,6.11,10.61,15.91,17.24,17.24C918.63,1060.6,926.44,1052.46,939.39,1045Z" transform="translate(-253.38 -9)"/></svg>