<svg xmlns="http://www.w3.org/2000/svg" viewBox="0 0 116 116"><defs><style>.cls-1{fill:#e60044;}</style></defs><title>mv_loading_apple_02</title><g id="NEWST"><g id="タイトル1"><g id="りんご線"><path class="cls-1" d="M107.66,30.3A49.81,49.81,0,0,0,80.51,3.36C73.69.5,68.1.21,60.52,1.76S44.14,11.69,38.88,14.84L37.35,12s-.26-1.09-.57-2.19-1-3-1-3a1.46,1.46,0,0,0-1.2-.73,1.42,1.42,0,0,0-.64.2l-1,.57a1.25,1.25,0,0,0-.52.42,1.45,1.45,0,0,0-.05,1.4l4.06,7.52-.35.19c-5.15,2.79-17.75,5.47-23.51,11.29C7.12,33.18,4.3,38,3,45.29a49.87,49.87,0,0,0,7.68,37.47c7.39,11.33,13.84,16.73,23.76,23C44.71,112.34,55.79,116,68.5,115a49.76,49.76,0,0,0,17.44-5.47L88.85,108A49.64,49.64,0,0,0,103,96.39C110.71,86.26,113.76,75,113.92,62.8,114.09,51,113.1,42.69,107.66,30.3Z"/></g></g></g></svg>