<svg id="圖層_5" data-name="圖層 5" xmlns="http://www.w3.org/2000/svg" viewBox="0 0 393.18 473.33"><defs><style>.cls-1,.cls-3{fill:#ffb600;}.cls-2{fill:none;stroke-width:18.79px;}.cls-2,.cls-3{stroke:#fff;stroke-miterlimit:10;}.cls-3{stroke-width:10px;}</style></defs><title>mv_loading1</title><path class="cls-1" d="M258.21,483.67s206.65-109.2,196.21-277.13C447.69,98.39,366.57,10.33,258.21,10.33S68.73,98.39,62,206.54C51.56,374.47,258.21,483.67,258.21,483.67Z" transform="translate(-61.62 -10.33)"/><path class="cls-2" d="M420.48,211.76A161.61,161.61,0,1,1,258.87,50.15,161.62,161.62,0,0,1,420.48,211.76Z" transform="translate(-61.62 -10.33)"/><path class="cls-3" d="M409.09,211.76A150.88,150.88,0,1,1,258.21,60.88,150.89,150.89,0,0,1,409.09,211.76Z" transform="translate(-61.62 -10.33)"/></svg>