<svg id="圖層_2" data-name="圖層 2" xmlns="http://www.w3.org/2000/svg" viewBox="0 0 368.85 375.43"><title>夜</title><path d="M134.71,258a283.52,283.52,0,0,1-37,36.56C86.65,279.81,78,268.31,66.93,256c55.86-41.49,90.78-102.28,108.44-139.65l37.38,17.25c9,4.11,13.14,8.63,13.14,12.32,0,4.52-5.75,8.21-14.79,10.68-7.8,10.68-16.43,25.47-28.34,40.66V256.8c33.27-32.86,63.26-83,77.63-138.42l37,6.16c11.5,1.64,15.61,4.11,15.61,7.8,0,3.29-4.52,8.21-9.45,14.79H398l27.93,19.72c-14,52.58-36.56,104.74-72.7,149.1,25.88,18.89,52.17,32.45,82.56,40.66a283.56,283.56,0,0,0-31.63,41.49c-34.5-14.79-62-31.63-83-48.47C297,371,267,389.89,232.46,403.85c-7.39-9.45-21.77-24.64-35.32-37.79a255.08,255.08,0,0,0,89.54-47.65c-15.61-15.61-28.75-30.4-48.47-54.22-9.45,12.73-17.25,21.36-25.06,28.34-9.45-6.57-18.89-15.61-30.4-22.59v129.8H134.71ZM430.86,74v40.25H81.31V74H230V28.43h40.25c11.09.41,15.61,2.05,15.61,6.16,0,2.88-2.05,6.57-5.75,11.5V74ZM286.68,187c-6.16,11.91-13.55,24.65-22.59,40.25,24.64,29.57,40.66,46.42,55,60C343,260.09,362.67,223.94,373.35,187Zm16,5.34c15.2,9.45,33.27,24.23,47.65,38.2L322,260.5c-12.73-13.56-30.81-29.16-44.77-40.25Z" transform="translate(-66.93 -28.43)"/></svg>