<svg id="yesmen" xmlns="http://www.w3.org/2000/svg" viewBox="0 0 447.04 245.35"><defs><style>.cls-1,.cls-2{fill:#fff;}.cls-1{stroke:#fff;stroke-miterlimit:10;stroke-width:5px;}</style></defs><title>夜市客</title><path class="cls-1" d="M47.85,313.1a101.31,101.31,0,0,1-8.25,10.2l-11.25-6.45c15.45-17.7,26.1-37,31.35-57.9L72,262.4c-3.9,11.85-7.8,22.2-12,30.6v74.7H47.85ZM92.4,239.45v-10.8h13.2v10.8h60.75V252.2H30.75V239.45ZM64.65,356.6c16.95-4.35,31.2-10.2,42.6-16.95A149.54,149.54,0,0,1,82.5,307.7l-9,7.5-9.9-8.7c15.75-11.25,22.35-24.45,29.25-48.15l11.25,3.9L103,266h51.75c2.4,0,3.75,1.5,3.75,4.35,0,7.65-6.6,43.35-32.55,69.45,10.35,6.75,24.3,12.3,42.15,16L161.69,368c-19.95-5.85-35.1-12.6-45-20.4a170.81,170.81,0,0,1-43.2,20.55ZM99,278.9a127.14,127.14,0,0,1-8.1,18.45c5.4,10.35,11.1,19,17.25,25.95l8.55,9c13.8-13.8,22.2-29.4,27.3-51.6a1.13,1.13,0,0,0,.15-.6c0-.75-.6-1.05-1.65-1.2Zm24.6,33a178.84,178.84,0,0,0-23.4-17.1l7.8-9.9a205.4,205.4,0,0,1,23.85,17.7Z" transform="translate(-24.46 -125.7)"/><path class="cls-1" d="M241.8,286.7H201.6c-.75,0-1,.3-1,1V358.7H187.2V277.25c0-2.25,1-3.15,3.3-3.15h51.3V255.65h-61V242.9h61v-13h13.35v13h61.2v12.75h-61.2V274.1h52.2c2.25,0,3.45.9,3.45,3.15v66.3c0,10-7.35,16.2-21.9,16.2a94.15,94.15,0,0,1-19.65-2.55l-.3-14.7c7.95,2.1,14.25,3.15,18.6,3.15,7.65,0,9.9-4,9.9-7.35V287.75c0-.75-.45-1-1.2-1h-41.1v80.4H241.8Z" transform="translate(-24.46 -125.7)"/><path class="cls-1" d="M329.25,306.35a200.94,200.94,0,0,0,58.95-10.5A255.7,255.7,0,0,1,362.7,280a163.93,163.93,0,0,1-21,12l-7-10.05c18.9-7.8,30.75-16.5,35.4-25.5l13.35,1.2-2,3.3h53.7l8.85,8.7c-6.6,9.15-16,17.85-28.35,25.95,13.65,4.8,31.2,8.4,52.35,10.2l-1.5,13.2L448,316.55q-15.75-2.47-45.9-14c-20.85,9.15-43.95,14.85-69.45,16.8Zm62.85-67.2v-10.5h12.75v10.5h52.95l11.1,5.55c-.6,8.55-2.85,18.6-6.9,30.45l-12-4c3.45-11.1,4.5-16.2,4.5-18.3,0-1.05-.6-1.5-1.65-1.5H345a1.1,1.1,0,0,0-1.2,1.2v18.15H331v-29.1a2.08,2.08,0,0,1,2.4-2.4ZM364.35,360.8v6.9H351.6V320.9c-.15-1.35.6-2.1,2.1-2.1h91.2c1.8,0,2.7.9,2.7,2.55V367.7H434.85v-6.9Zm0-12.15h70.5v-15.9c0-1.2-.6-1.8-2-1.8H366.15c-1.5,0-2,.75-1.8,1.8Zm24-66.3,13.35,7.35c8.55-5.1,16-9.45,21.75-15.6H376Z" transform="translate(-24.46 -125.7)"/><path class="cls-2" d="M126.73,126.65l-19.3,32.1V179H93.93V159.38L74.32,126.65H89.69L101,146.85l10.91-20.19Z" transform="translate(-24.46 -125.7)"/><path class="cls-2" d="M171.59,179H133.73V126.65h37.86v10.13H147.16v9h22.68v10.13H147.16v12.94h24.43Z" transform="translate(-24.46 -125.7)"/><path class="cls-2" d="M224.82,162.55a14.93,14.93,0,0,1-6.56,12.57q-6.56,4.83-17.81,4.83a49.74,49.74,0,0,1-11.34-1.14,58.37,58.37,0,0,1-9.05-2.9V163.36h1.48a31.26,31.26,0,0,0,9.37,5.13,30.46,30.46,0,0,0,10,1.79,32.34,32.34,0,0,0,3.23-.21,12.91,12.91,0,0,0,3.27-.7,8.14,8.14,0,0,0,2.55-1.58,3.69,3.69,0,0,0,1-2.81,3.79,3.79,0,0,0-1.46-3,10.15,10.15,0,0,0-4.27-1.92q-3-.7-6.24-1.32a47.82,47.82,0,0,1-6.17-1.56q-6.61-2.14-9.51-5.82a14.26,14.26,0,0,1-2.9-9.12q0-7.31,6.56-11.94t16.86-4.62a52.3,52.3,0,0,1,10.21,1,47.77,47.77,0,0,1,8.74,2.51v12.06H221.3a27.84,27.84,0,0,0-7.75-4.24,26.7,26.7,0,0,0-9.37-1.71,24.74,24.74,0,0,0-3.36.23,13.2,13.2,0,0,0-3.22.86,6.15,6.15,0,0,0-2.36,1.6,3.51,3.51,0,0,0-1,2.44,3.65,3.65,0,0,0,1.58,3.18,17.72,17.72,0,0,0,6,2l5.54,1.16a58.15,58.15,0,0,1,5.71,1.55q6,2,8.88,5.36A13.18,13.18,0,0,1,224.82,162.55Z" transform="translate(-24.46 -125.7)"/><path class="cls-2" d="M313.55,179H300.13V143.95l-9.7,22.75h-9.32l-9.7-22.75V179H258.68V126.65h15.68l11.78,26.26,11.74-26.26h15.68Z" transform="translate(-24.46 -125.7)"/><path class="cls-2" d="M364.78,179H326.91V126.65h37.86v10.13H340.34v9H363v10.13H340.34v12.94h24.43Z" transform="translate(-24.46 -125.7)"/><path class="cls-2" d="M423.7,179h-13l-22.22-35.93V179H376.1V126.65h16.14l19.09,30v-30H423.7Z" transform="translate(-24.46 -125.7)"/></svg>